ffmpeg started on 2025-06-16 at 16:27:09
Report written to "D:\Convert\FFMetrics\reports\psnr_report-6.txt"
Log level: 32
Command line:
ffmpeg -hide_banner -nostdin -i "G:\\\xc0\xed\xe8\xec\xe5\\[\xd2\xee\xef]\\\xd0\xfb\xf6\xe0\xf0\xfc-\xe2\xe0\xec\xef\xe8\xf0\\\xd2\xc2-1\\[JamClub] Vampire Knight - 08_HEVC.mkv" -i "G:\\\xc0\xed\xe8\xec\xe5\\[\xd2\xee\xef]\\\xd0\xfb\xf6\xe0\xf0\xfc-\xe2\xe0\xec\xef\xe8\xf0\\\xd2\xc2-1\\[JamClub] Vampire Knight - 08.mp4" -lavfi "[0:v]settb=AVTB,setpts=PTS-STARTPTS,format=pix_fmts=yuv420p10,fps=24000/1001,scale=1920:1080:flags=bicubic[main];[1:v]settb=AVTB,setpts=PTS-STARTPTS,format=pix_fmts=yuv420p,fps=24000/1001,scale=1920:1080:flags=bicubic[ref];[main][ref]psnr=eof_action=endall:stats_file='D\\:/Convert/FFMetrics/logs/psnr_logfile-6.txt'" -f null -
Input #0, matroska,webm, from 'G:\Аниме\[Топ]\Рыцарь-вампир\ТВ-1\[JamClub] Vampire Knight - 08_HEVC.mkv':
  Metadata:
    COMPATIBLE_BRANDS: isomiso2avc1mp41
    MAJOR_BRAND     : isom
    MINOR_VERSION   : 512
    ENCODER         : Lavf61.7.100
  Duration: 00:24:22.37, start: -0.001000, bitrate: 1021 kb/s
  Stream #0:0: Video: hevc (Main 10), yuv420p10le(tv, bt709, progressive), 1920x1080 [SAR 1:1 DAR 16:9], 23.98 fps, 23.98 tbr, 1k tbn (default)
      Metadata:
        HANDLER_NAME    : VideoHandler
        VENDOR_ID       : [0][0][0][0]
        ENCODER         : Lavc61.19.100 libx265
        BPS             : 822835
        DURATION        : 00:24:22.293708333
        NUMBER_OF_FRAMES: 43692
        NUMBER_OF_BYTES : 150403308
        _STATISTICS_WRITING_APP: mkvpropedit v66.0.0 ('Josie') 64-bit
        _STATISTICS_WRITING_DATE_UTC: 2025-06-16 08:38:00
        _STATISTICS_TAGS: BPS DURATION NUMBER_OF_FRAMES NUMBER_OF_BYTES
  Stream #0:1(eng): Audio: aac (LC), 48000 Hz, stereo, fltp (default)
      Metadata:
        HANDLER_NAME    : SoundHandler
        VENDOR_ID       : [0][0][0][0]
        ENCODER         : Lavc61.19.100 aac
        BPS             : 194209
        DURATION        : 00:24:22.330000000
        NUMBER_OF_FRAMES: 68548
        NUMBER_OF_BYTES : 35499721
        _STATISTICS_WRITING_APP: mkvpropedit v66.0.0 ('Josie') 64-bit
        _STATISTICS_WRITING_DATE_UTC: 2025-06-16 08:38:00
        _STATISTICS_TAGS: BPS DURATION NUMBER_OF_FRAMES NUMBER_OF_BYTES
Input #1, mov,mp4,m4a,3gp,3g2,mj2, from 'G:\Аниме\[Топ]\Рыцарь-вампир\ТВ-1\[JamClub] Vampire Knight - 08.mp4':
  Metadata:
    major_brand     : isom
    minor_version   : 512
    compatible_brands: isomiso2avc1mp41
    encoder         : Lavf60.16.100
  Duration: 00:24:22.35, start: 0.000000, bitrate: 3504 kb/s
  Stream #1:0[0x1](und): Video: h264 (High) (avc1 / 0x31637661), yuv420p(progressive), 1920x1080 [SAR 1:1 DAR 16:9], 3303 kb/s, 29.88 fps, 23.98 tbr, 90k tbn (default)
      Metadata:
        handler_name    : VideoHandler
        vendor_id       : [0][0][0][0]
  Stream #1:1[0x2](eng): Audio: aac (LC) (mp4a / 0x6134706D), 48000 Hz, stereo, fltp, 191 kb/s (default)
      Metadata:
        handler_name    : SoundHandler
        vendor_id       : [0][0][0][0]
Stream mapping:
  Stream #0:0 (hevc) -> settb:default
  Stream #1:0 (h264) -> settb:default
  psnr:default -> Stream #0:0 (wrapped_avframe)
  Stream #0:1 -> #0:1 (aac (native) -> pcm_s16le (native))
Output #0, null, to 'pipe:':
  Metadata:
    COMPATIBLE_BRANDS: isomiso2avc1mp41
    MAJOR_BRAND     : isom
    MINOR_VERSION   : 512
    encoder         : Lavf61.7.100
  Stream #0:0: Video: wrapped_avframe, yuv420p10le(tv, bt709, progressive), 1920x1080 [SAR 1:1 DAR 16:9], q=2-31, 200 kb/s, 23.98 fps, 23.98 tbn
      Metadata:
        encoder         : Lavc61.19.100 wrapped_avframe
  Stream #0:1(eng): Audio: pcm_s16le, 48000 Hz, stereo, s16, 1536 kb/s (default)
      Metadata:
        HANDLER_NAME    : SoundHandler
        VENDOR_ID       : [0][0][0][0]
        _STATISTICS_TAGS: BPS DURATION NUMBER_OF_FRAMES NUMBER_OF_BYTES
        BPS             : 194209
        DURATION        : 00:24:22.330000000
        NUMBER_OF_FRAMES: 68548
        NUMBER_OF_BYTES : 35499721
        _STATISTICS_WRITING_APP: mkvpropedit v66.0.0 ('Josie') 64-bit
        _STATISTICS_WRITING_DATE_UTC: 2025-06-16 08:38:00
        encoder         : Lavc61.19.100 pcm_s16le
frame=  110 fps=0.0 q=-0.0 size=N/A time=00:00:04.58 bitrate=N/A speed=8.95x    frame=  269 fps=263 q=-0.0 size=N/A time=00:00:11.21 bitrate=N/A speed=  11x    frame=  474 fps=306 q=-0.0 size=N/A time=00:00:19.76 bitrate=N/A speed=12.8x    frame=  707 fps=343 q=-0.0 size=N/A time=00:00:29.48 bitrate=N/A speed=14.3x    frame=  935 fps=364 q=-0.0 size=N/A time=00:00:38.99 bitrate=N/A speed=15.2x    frame= 1171 fps=378 q=-0.0 size=N/A time=00:00:48.84 bitrate=N/A speed=15.8x    frame= 1407 fps=390 q=-0.0 size=N/A time=00:00:58.68 bitrate=N/A speed=16.3x    frame= 1634 fps=397 q=-0.0 size=N/A time=00:01:08.15 bitrate=N/A speed=16.5x    frame= 1856 fps=400 q=-0.0 size=N/A time=00:01:17.41 bitrate=N/A speed=16.7x    frame= 2054 fps=399 q=-0.0 size=N/A time=00:01:25.66 bitrate=N/A speed=16.6x    frame= 2221 fps=392 q=-0.0 size=N/A time=00:01:32.63 bitrate=N/A speed=16.4x    frame= 2385 fps=385 q=-0.0 size=N/A time=00:01:39.47 bitrate=N/A speed=16.1x    frame= 2570 fps=384 q=-0.0 size=N/A time=00:01:47.19 bitrate=N/A speed=  16x    frame= 2755 fps=382 q=-0.0 size=N/A time=00:01:54.90 bitrate=N/A speed=15.9x    frame= 2965 fps=383 q=-0.0 size=N/A time=00:02:03.66 bitrate=N/A speed=  16x    frame= 3113 fps=378 q=-0.0 size=N/A time=00:02:09.83 bitrate=N/A speed=15.7x    frame= 3301 fps=377 q=-0.0 size=N/A time=00:02:17.67 bitrate=N/A speed=15.7x    frame= 3463 fps=373 q=-0.0 size=N/A time=00:02:24.43 bitrate=N/A speed=15.6x    frame= 3655 fps=373 q=-0.0 size=N/A time=00:02:32.44 bitrate=N/A speed=15.6x    frame= 3852 fps=374 q=-0.0 size=N/A time=00:02:40.66 bitrate=N/A speed=15.6x    frame= 4071 fps=376 q=-0.0 size=N/A time=00:02:49.79 bitrate=N/A speed=15.7x    frame= 4266 fps=376 q=-0.0 size=N/A time=00:02:57.92 bitrate=N/A speed=15.7x    frame= 4500 fps=380 q=-0.0 size=N/A time=00:03:07.68 bitrate=N/A speed=15.8x    frame= 4711 fps=381 q=-0.0 size=N/A time=00:03:16.48 bitrate=N/A speed=15.9x    frame= 4909 fps=381 q=-0.0 size=N/A time=00:03:24.74 bitrate=N/A speed=15.9x    frame= 5139 fps=383 q=-0.0 size=N/A time=00:03:34.33 bitrate=N/A speed=  16x    frame= 5368 fps=386 q=-0.0 size=N/A time=00:03:43.89 bitrate=N/A speed=16.1x    frame= 5592 fps=387 q=-0.0 size=N/A time=00:03:53.23 bitrate=N/A speed=16.2x    frame= 5840 fps=390 q=-0.0 size=N/A time=00:04:03.57 bitrate=N/A speed=16.3x    frame= 6046 fps=390 q=-0.0 size=N/A time=00:04:12.16 bitrate=N/A speed=16.3x    frame= 6235 fps=390 q=-0.0 size=N/A time=00:04:20.05 bitrate=N/A speed=16.3x    frame= 6465 fps=391 q=-0.0 size=N/A time=00:04:29.64 bitrate=N/A speed=16.3x    frame= 6669 fps=392 q=-0.0 size=N/A time=00:04:38.15 bitrate=N/A speed=16.3x    frame= 6877 fps=392 q=-0.0 size=N/A time=00:04:46.82 bitrate=N/A speed=16.4x    frame= 7111 fps=394 q=-0.0 size=N/A time=00:04:56.58 bitrate=N/A speed=16.4x    frame= 7320 fps=394 q=-0.0 size=N/A time=00:05:05.30 bitrate=N/A speed=16.4x    frame= 7557 fps=396 q=-0.0 size=N/A time=00:05:15.18 bitrate=N/A speed=16.5x    frame= 7779 fps=397 q=-0.0 size=N/A time=00:05:24.44 bitrate=N/A speed=16.5x    frame= 8004 fps=398 q=-0.0 size=N/A time=00:05:33.83 bitrate=N/A speed=16.6x    frame= 8261 fps=400 q=-0.0 size=N/A time=00:05:44.55 bitrate=N/A speed=16.7x    frame= 8506 fps=402 q=-0.0 size=N/A time=00:05:54.77 bitrate=N/A speed=16.8x    frame= 8729 fps=403 q=-0.0 size=N/A time=00:06:04.07 bitrate=N/A speed=16.8x    frame= 8984 fps=405 q=-0.0 size=N/A time=00:06:14.70 bitrate=N/A speed=16.9x    frame= 9210 fps=406 q=-0.0 size=N/A time=00:06:24.13 bitrate=N/A speed=16.9x    frame= 9426 fps=406 q=-0.0 size=N/A time=00:06:33.14 bitrate=N/A speed=16.9x    frame= 9650 fps=407 q=-0.0 size=N/A time=00:06:42.48 bitrate=N/A speed=  17x    frame= 9894 fps=408 q=-0.0 size=N/A time=00:06:52.66 bitrate=N/A speed=  17x    frame=10140 fps=409 q=-0.0 size=N/A time=00:07:02.92 bitrate=N/A speed=17.1x    frame=10365 fps=410 q=-0.0 size=N/A time=00:07:12.30 bitrate=N/A speed=17.1x    frame=10611 fps=411 q=-0.0 size=N/A time=00:07:22.56 bitrate=N/A speed=17.2x    frame=10841 fps=412 q=-0.0 size=N/A time=00:07:32.16 bitrate=N/A speed=17.2x    frame=11054 fps=412 q=-0.0 size=N/A time=00:07:41.04 bitrate=N/A speed=17.2x    frame=11289 fps=413 q=-0.0 size=N/A time=00:07:50.84 bitrate=N/A speed=17.2x    frame=11526 fps=414 q=-0.0 size=N/A time=00:08:00.73 bitrate=N/A speed=17.3x    frame=11762 fps=414 q=-0.0 size=N/A time=00:08:10.57 bitrate=N/A speed=17.3x    frame=11998 fps=415 q=-0.0 size=N/A time=00:08:20.45 bitrate=N/A speed=17.3x    frame=12212 fps=415 q=-0.0 size=N/A time=00:08:29.34 bitrate=N/A speed=17.3x    frame=12463 fps=416 q=-0.0 size=N/A time=00:08:39.81 bitrate=N/A speed=17.4x    frame=12712 fps=417 q=-0.0 size=N/A time=00:08:50.19 bitrate=N/A speed=17.4x    frame=12961 fps=419 q=-0.0 size=N/A time=00:09:00.58 bitrate=N/A speed=17.5x    frame=13209 fps=420 q=-0.0 size=N/A time=00:09:10.92 bitrate=N/A speed=17.5x    frame=13443 fps=420 q=-0.0 size=N/A time=00:09:20.68 bitrate=N/A speed=17.5x    frame=13675 fps=421 q=-0.0 size=N/A time=00:09:30.36 bitrate=N/A speed=17.5x    frame=13903 fps=421 q=-0.0 size=N/A time=00:09:39.87 bitrate=N/A speed=17.6x    frame=14144 fps=422 q=-0.0 size=N/A time=00:09:49.92 bitrate=N/A speed=17.6x    frame=14369 fps=422 q=-0.0 size=N/A time=00:09:59.30 bitrate=N/A speed=17.6x    frame=14615 fps=423 q=-0.0 size=N/A time=00:10:09.56 bitrate=N/A speed=17.6x    frame=14838 fps=423 q=-0.0 size=N/A time=00:10:18.86 bitrate=N/A speed=17.6x    frame=15085 fps=424 q=-0.0 size=N/A time=00:10:29.17 bitrate=N/A speed=17.7x    frame=15321 fps=424 q=-0.0 size=N/A time=00:10:39.01 bitrate=N/A speed=17.7x    frame=15549 fps=424 q=-0.0 size=N/A time=00:10:48.52 bitrate=N/A speed=17.7x    frame=15770 fps=424 q=-0.0 size=N/A time=00:10:57.74 bitrate=N/A speed=17.7x    frame=16031 fps=425 q=-0.0 size=N/A time=00:11:08.62 bitrate=N/A speed=17.7x    frame=16264 fps=426 q=-0.0 size=N/A time=00:11:18.34 bitrate=N/A speed=17.8x    frame=16501 fps=426 q=-0.0 size=N/A time=00:11:28.22 bitrate=N/A speed=17.8x    frame=16737 fps=427 q=-0.0 size=N/A time=00:11:38.07 bitrate=N/A speed=17.8x    frame=16981 fps=427 q=-0.0 size=N/A time=00:11:48.24 bitrate=N/A speed=17.8x    frame=17235 fps=428 q=-0.0 size=N/A time=00:11:58.84 bitrate=N/A speed=17.9x    frame=17468 fps=429 q=-0.0 size=N/A time=00:12:08.56 bitrate=N/A speed=17.9x    frame=17717 fps=429 q=-0.0 size=N/A time=00:12:18.94 bitrate=N/A speed=17.9x    frame=17946 fps=429 q=-0.0 size=N/A time=00:12:28.49 bitrate=N/A speed=17.9x    frame=18191 fps=430 q=-0.0 size=N/A time=00:12:38.71 bitrate=N/A speed=17.9x    frame=18435 fps=430 q=-0.0 size=N/A time=00:12:48.89 bitrate=N/A speed=  18x    frame=18677 fps=431 q=-0.0 size=N/A time=00:12:58.98 bitrate=N/A speed=  18x    frame=18906 fps=431 q=-0.0 size=N/A time=00:13:08.53 bitrate=N/A speed=  18x    frame=19127 fps=431 q=-0.0 size=N/A time=00:13:17.75 bitrate=N/A speed=  18x    frame=19373 fps=432 q=-0.0 size=N/A time=00:13:28.01 bitrate=N/A speed=  18x    frame=19608 fps=432 q=-0.0 size=N/A time=00:13:37.81 bitrate=N/A speed=  18x    frame=19820 fps=432 q=-0.0 size=N/A time=00:13:46.65 bitrate=N/A speed=  18x    frame=20071 fps=432 q=-0.0 size=N/A time=00:13:57.12 bitrate=N/A speed=  18x    frame=20319 fps=433 q=-0.0 size=N/A time=00:14:07.47 bitrate=N/A speed=  18x    frame=20562 fps=433 q=-0.0 size=N/A time=00:14:17.60 bitrate=N/A speed=18.1x    frame=20777 fps=433 q=-0.0 size=N/A time=00:14:26.57 bitrate=N/A speed=18.1x    frame=21001 fps=433 q=-0.0 size=N/A time=00:14:35.91 bitrate=N/A speed=18.1x    frame=21222 fps=433 q=-0.0 size=N/A time=00:14:45.13 bitrate=N/A speed=18.1x    frame=21455 fps=433 q=-0.0 size=N/A time=00:14:54.85 bitrate=N/A speed=18.1x    frame=21698 fps=434 q=-0.0 size=N/A time=00:15:04.98 bitrate=N/A speed=18.1x    frame=21913 fps=433 q=-0.0 size=N/A time=00:15:13.95 bitrate=N/A speed=18.1x    frame=22152 fps=434 q=-0.0 size=N/A time=00:15:23.92 bitrate=N/A speed=18.1x    frame=22397 fps=434 q=-0.0 size=N/A time=00:15:34.14 bitrate=N/A speed=18.1x    frame=22636 fps=434 q=-0.0 size=N/A time=00:15:44.10 bitrate=N/A speed=18.1x    frame=22856 fps=434 q=-0.0 size=N/A time=00:15:53.28 bitrate=N/A speed=18.1x    frame=23086 fps=434 q=-0.0 size=N/A time=00:16:02.87 bitrate=N/A speed=18.1x    frame=23319 fps=435 q=-0.0 size=N/A time=00:16:12.59 bitrate=N/A speed=18.1x    frame=23554 fps=435 q=-0.0 size=N/A time=00:16:22.39 bitrate=N/A speed=18.1x    frame=23773 fps=435 q=-0.0 size=N/A time=00:16:31.53 bitrate=N/A speed=18.1x    frame=23980 fps=434 q=-0.0 size=N/A time=00:16:40.16 bitrate=N/A speed=18.1x    frame=24173 fps=434 q=-0.0 size=N/A time=00:16:48.21 bitrate=N/A speed=18.1x    frame=24353 fps=433 q=-0.0 size=N/A time=00:16:55.72 bitrate=N/A speed=18.1x    frame=24562 fps=433 q=-0.0 size=N/A time=00:17:04.44 bitrate=N/A speed=  18x    frame=24801 fps=433 q=-0.0 size=N/A time=00:17:14.40 bitrate=N/A speed=18.1x    frame=25053 fps=433 q=-0.0 size=N/A time=00:17:24.91 bitrate=N/A speed=18.1x    frame=25279 fps=434 q=-0.0 size=N/A time=00:17:34.34 bitrate=N/A speed=18.1x    frame=25459 fps=433 q=-0.0 size=N/A time=00:17:41.85 bitrate=N/A speed=18.1x    frame=25657 fps=432 q=-0.0 size=N/A time=00:17:50.11 bitrate=N/A speed=  18x    frame=25856 fps=432 q=-0.0 size=N/A time=00:17:58.41 bitrate=N/A speed=  18x    frame=26080 fps=432 q=-0.0 size=N/A time=00:18:07.75 bitrate=N/A speed=  18x    frame=26315 fps=432 q=-0.0 size=N/A time=00:18:17.55 bitrate=N/A speed=  18x    frame=26545 fps=432 q=-0.0 size=N/A time=00:18:27.14 bitrate=N/A speed=  18x    frame=26773 fps=432 q=-0.0 size=N/A time=00:18:36.65 bitrate=N/A speed=  18x    frame=26995 fps=432 q=-0.0 size=N/A time=00:18:45.91 bitrate=N/A speed=  18x    frame=27205 fps=432 q=-0.0 size=N/A time=00:18:54.67 bitrate=N/A speed=  18x    frame=27438 fps=432 q=-0.0 size=N/A time=00:19:04.39 bitrate=N/A speed=  18x    frame=27636 fps=432 q=-0.0 size=N/A time=00:19:12.65 bitrate=N/A speed=  18x    frame=27849 fps=432 q=-0.0 size=N/A time=00:19:21.53 bitrate=N/A speed=  18x    frame=28077 fps=432 q=-0.0 size=N/A time=00:19:31.04 bitrate=N/A speed=  18x    frame=28296 fps=432 q=-0.0 size=N/A time=00:19:40.17 bitrate=N/A speed=  18x    frame=28513 fps=432 q=-0.0 size=N/A time=00:19:49.22 bitrate=N/A speed=  18x    frame=28738 fps=432 q=-0.0 size=N/A time=00:19:58.61 bitrate=N/A speed=  18x    frame=28943 fps=432 q=-0.0 size=N/A time=00:20:07.16 bitrate=N/A speed=  18x    frame=29165 fps=432 q=-0.0 size=N/A time=00:20:16.42 bitrate=N/A speed=  18x    frame=29394 fps=432 q=-0.0 size=N/A time=00:20:25.97 bitrate=N/A speed=  18x    frame=29599 fps=431 q=-0.0 size=N/A time=00:20:34.52 bitrate=N/A speed=  18x    frame=29832 fps=431 q=-0.0 size=N/A time=00:20:44.24 bitrate=N/A speed=  18x    frame=30069 fps=432 q=-0.0 size=N/A time=00:20:54.12 bitrate=N/A speed=  18x    frame=30282 fps=432 q=-0.0 size=N/A time=00:21:03.01 bitrate=N/A speed=  18x    frame=30525 fps=432 q=-0.0 size=N/A time=00:21:13.14 bitrate=N/A speed=  18x    frame=30735 fps=432 q=-0.0 size=N/A time=00:21:21.90 bitrate=N/A speed=  18x    frame=30954 fps=432 q=-0.0 size=N/A time=00:21:31.03 bitrate=N/A speed=  18x    frame=31173 fps=432 q=-0.0 size=N/A time=00:21:40.17 bitrate=N/A speed=  18x    frame=31417 fps=432 q=-0.0 size=N/A time=00:21:50.35 bitrate=N/A speed=  18x    frame=31645 fps=432 q=-0.0 size=N/A time=00:21:59.86 bitrate=N/A speed=  18x    frame=31849 fps=432 q=-0.0 size=N/A time=00:22:08.36 bitrate=N/A speed=  18x    frame=32077 fps=432 q=-0.0 size=N/A time=00:22:17.87 bitrate=N/A speed=  18x    frame=32300 fps=432 q=-0.0 size=N/A time=00:22:27.17 bitrate=N/A speed=  18x    frame=32521 fps=432 q=-0.0 size=N/A time=00:22:36.39 bitrate=N/A speed=  18x    frame=32751 fps=432 q=-0.0 size=N/A time=00:22:45.98 bitrate=N/A speed=  18x    frame=32985 fps=432 q=-0.0 size=N/A time=00:22:55.74 bitrate=N/A speed=  18x    frame=33201 fps=432 q=-0.0 size=N/A time=00:23:04.75 bitrate=N/A speed=  18x    frame=33409 fps=432 q=-0.0 size=N/A time=00:23:13.43 bitrate=N/A speed=  18x    frame=33637 fps=432 q=-0.0 size=N/A time=00:23:22.94 bitrate=N/A speed=  18x    frame=33882 fps=432 q=-0.0 size=N/A time=00:23:33.16 bitrate=N/A speed=  18x    frame=34139 fps=432 q=-0.0 size=N/A time=00:23:43.88 bitrate=N/A speed=  18x    frame=34375 fps=433 q=-0.0 size=N/A time=00:23:53.72 bitrate=N/A speed=  18x    frame=34582 fps=432 q=-0.0 size=N/A time=00:24:02.35 bitrate=N/A speed=  18x    frame=34807 fps=432 q=-0.0 size=N/A time=00:24:11.74 bitrate=N/A speed=  18x    [Parsed_psnr_10 @ 0000021513b5a0c0] PSNR y:49.713530 u:51.777877 v:52.089505 average:50.334750 min:36.232270 max:inf
[out#0/null @ 0000021510a9f4c0] video:15065KiB audio:274192KiB subtitle:0KiB other streams:0KiB global headers:0KiB muxing overhead: unknown
frame=35060 fps=433 q=-0.0 Lsize=N/A time=00:24:22.29 bitrate=N/A speed=18.1x    
